<svg xmlns="http://www.w3.org/2000/svg" xmlns:xlink="http://www.w3.org/1999/xlink" width="400" height="400" viewBox="0 0 400 400">
  <defs>
    <clipPath id="clip-tron">
      <rect width="400" height="400"/>
    </clipPath>
  </defs>
  <g id="tron" clip-path="url(#clip-tron)">
    <path id="Path_40" data-name="Path 40" d="M17.043,7.63h4.388l24.941,4.388,30.022,5.312,30.484,5.543L136.9,28.414,164.844,33.5l32.1,5.773L230.661,45.5l36.719,6.928,14.549,2.54a20.094,20.094,0,0,1,6.235,3.233l12.471,11.316,41.8,40.183,7.39,6.928a13.163,13.163,0,0,1,4.388,11.316l-1.386,3.695a66.971,66.971,0,0,1-9.007,12.24l-55.194,67.665L223.5,290.76l-56.349,69.281-8.314,9.93a10.854,10.854,0,0,1-2.309,2.309,3.464,3.464,0,0,1-4.619,0h0a12.239,12.239,0,0,1-2.771-3.233l-2.771-7.39-23.094-56.58L67.85,171.827C52.608,127.487,33.671,85.456,16.813,42.5,14.041,35.343,11.27,28.183,8.73,20.793a9.93,9.93,0,0,1,6-12.933h2.309ZM44.756,47.582h0L153.3,312.93l1.847-15.935c0-5.543,1.155-10.854,1.848-16.4s1.386-10.854,1.848-16.4l2.309-17.089,2.078-17.782,2.078-18.013,2.078-17.782c0-6.466,1.386-13.163,2.309-19.63l2.078-18.013a1.617,1.617,0,0,0,0-1.386l-41.8-35.333L52.608,53.125ZM175.236,312.7h0L316.8,142.5h-1.386l-11.778,2.078L281.7,148.04l-24.248,3.926-23.094,3.695-23.094,3.7-17.32,2.771h0l-1.386,11.316-2.078,16.166-1.848,16.166c0,5.542-1.155,10.854-1.847,16.166s0,10.854-1.848,16.166l-2.078,16.166c0,5.542-1.155,10.854-1.848,16.166l-2.078,17.782-2.078,18.013a41.329,41.329,0,0,1,0,5.543ZM256.757,73.447,61.384,37.421h0l120.55,98.841Zm-47.342,66.741h0L320.5,119.866l-41.338-38.1Z" transform="translate(18.819 15.37)" fill="#f0f2f2"/>
  </g>
</svg>
